PathFileType	4	(X/Y/Z)	/Users/niels/Desktop/University/Third Semester/Perception and Action/Exam/Gymnastics Motion Tracking/Code for Gym Tracking/Analyzed Data/Webcam_Backflip/id6_2_baseline_Sports2D/id6_2_baseline_Sports2D_px_person00.trc
DataRate	CameraRate	NumFrames	NumMarkers	Units	OrigDataRate	OrigDataStartFrame	OrigNumFrames
29.810126582278482	29.810126582278482	7	22	m	29.810126582278482	59	158
Frame#	Time	Hip			RHip			RKnee			RAnkle			RBigToe			RSmallToe			RHeel			LHip			LKnee			LAnkle			LBigToe			LSmallToe			LHeel			Neck			Head			Nose			RShoulder			RElbow			RWrist			LShoulder			LElbow			LWrist		
		X1	Y1	Z1	X2	Y2	Z2	X3	Y3	Z3	X4	Y4	Z4	X5	Y5	Z5	X6	Y6	Z6	X7	Y7	Z7	X8	Y8	Z8	X9	Y9	Z9	X10	Y10	Z10	X11	Y11	Z11	X12	Y12	Z12	X13	Y13	Z13	X14	Y14	Z14	X15	Y15	Z15	X16	Y16	Z16	X17	Y17	Z17	X18	Y18	Z18	X19	Y19	Z19	X20	Y20	Z20	X21	Y21	Z21	X22	Y22	Z22
59	1.9791932059447983	0.9492592540602648	-0.6451842457370777	0.0	0.9467986326505408	-0.6481700165462274	0.0	1.018491131039494	-0.7169668317283583	0.0	0.9763611537274832	-0.8022194046105494	0.0	1.005374563536351	-0.8173242268609501	0.0	0.9987741725630942	-0.8193090911917632	0.0	0.9643451304432489	-0.8100302206848061	0.0	0.9506132342932407	-0.645542589887447	0.0	1.0170431112959668	-0.7153773925016902	0.0	0.9771817111047699	-0.7992347133607073	0.0	1.0111217265886991	-0.8170414457929732	0.0	1.0042764373461368	-0.8143783308519263	0.0	0.9638977046867789	-0.8058838759746291	0.0	0.9933869669182643	-0.5228621027485232	0.0	1.014659248441316	-0.46032862586546663	0.0	1.0271858028234382	-0.4887913691945895	0.0	0.9891266014611352	-0.5396190772580545	0.0	0.9831864745263222	-0.5926115446300829	0.0	0.9796896014261295	-0.6345933843780851	0.0	0.9863195089703654	-0.5356553604281287	0.0	0.9810549179280181	-0.5849413272153368	0.0	0.9814273800742516	-0.6204648462614679	0.0
60	2.0127388535031847	0.9503547476146368	-0.6544423197845358	0.0	0.9478656701568533	-0.6577443106315785	0.0	1.017354888165994	-0.7304004860123325	0.0	0.9763269710584104	-0.8155471026506246	0.0	1.0035927522599777	-0.8291648113067565	0.0	0.997204641654878	-0.8306655523633972	0.0	0.9646087017204626	-0.8223454242300348	0.0	0.9517404328772893	-0.6550554263919333	0.0	1.015354452245353	-0.7289855064216147	0.0	0.9767840759937682	-0.813113180343108	0.0	1.009197030548302	-0.8284552461516963	0.0	1.0011990642774278	-0.8256206595124461	0.0	0.963524178784483	-0.8184133830436802	0.0	0.9837442283928676	-0.5286504561573526	0.0	0.9981766010076654	-0.4640819659075808	0.0	1.0142465018215354	-0.4928795958571464	0.0	0.9805713094488259	-0.5457996195888639	0.0	0.9959733511577935	-0.5939559474987569	0.0	1.013295696631025	-0.6293945704038638	0.0	0.9779152521844094	-0.5418710319192085	0.0	0.99420920992017	-0.5857754615318066	0.0	1.0129587625032481	-0.6132722298542596	0.0
61	2.046284501061571	0.9517563462850683	-0.6580269977322653	0.0	0.9493026121559679	-0.6613522548704689	0.0	1.016044866053629	-0.7390727923171787	0.0	0.9767339586489937	-0.8248051390075087	0.0	1.0023037030645667	-0.837563041234452	0.0	0.9960329218898348	-0.8388213415941641	0.0	0.9653226693606493	-0.8314070049080556	0.0	0.9531110504669454	-0.6585061055843457	0.0	1.0132995097929842	-0.737557323492719	0.0	0.9768287146944601	-0.822640655816491	0.0	1.0072657429328122	-0.8360839062657994	0.0	0.9987647333847185	-0.8330966199484064	0.0	0.9634479360262833	-0.8276814249188041	0.0	0.9719683212525015	-0.5300455197096438	0.0	0.9789802921968384	-0.4634217290773222	0.0	0.9986258901190246	-0.4923557278413862	0.0	0.9704869067868903	-0.5462520570714263	0.0	1.0044309381825072	-0.5809814247955459	0.0	1.037628119275056	-0.6017258934938723	0.0	0.9675785123102265	-0.542568436424962	0.0	1.0025107597808849	-0.5731499652817936	0.0	1.0339068263693438	-0.5856440572863343	0.0
62	2.0798301486199575	0.9533376356219323	-0.653596978588551	0.0	0.9512283542031152	-0.6566582192102458	0.0	1.0152473015012942	-0.7395630014483894	0.0	0.9780941217516175	-0.8268610777080849	0.0	1.0015490943595213	-0.8402333606720352	0.0	0.9952523892331635	-0.8414259674433437	0.0	0.9669670685029726	-0.834273045818448	0.0	0.9545860809363442	-0.6535780548982535	0.0	1.0116307246757543	-0.7375899786076507	0.0	0.9778460186527125	-0.8246302688434709	0.0	1.005565161833012	-0.8377057558632769	0.0	0.9977230653294822	-0.8347077983214054	0.0	0.9641836578050806	-0.8309594679099291	0.0	0.9580220634571925	-0.5254678170678733	0.0	0.956978158062053	-0.45721896193246264	0.0	0.9799957082611969	-0.48577265860381	0.0	0.9585231903636403	-0.5394936242954175	0.0	1.0048472997243627	-0.5541500755629641	0.0	1.0454107455271564	-0.554795997787382	0.0	0.9546159724025427	-0.5362629953857819	0.0	1.001893008464242	-0.5477866059393044	0.0	1.0371147941092633	-0.541035296780264	0.0
63	2.1133757961783437	0.9547926631172768	-0.6397447530208349	0.0	0.9534070686988901	-0.6423912713432895	0.0	1.0159760579604686	-0.7286907173316687	0.0	0.981311985036273	-0.8186885038613508	0.0	1.002057772529799	-0.8345937130441684	0.0	0.9956281869695877	-0.8357547591553626	0.0	0.9704694781196173	-0.8277791086441522	0.0	0.9558748291517933	-0.6389897272177004	0.0	1.0113532712553932	-0.7258910897877577	0.0	0.9807454436899099	-0.8159915022106018	0.0	1.0052062128830963	-0.830613106317958	0.0	0.9990743313068755	-0.8280441397502171	0.0	0.9667557088229944	-0.8253018376290729	0.0	0.9417221797153914	-0.5140290380515015	0.0	0.932291605335047	-0.44493363547771153	0.0	0.9581675343275894	-0.4724293123145997	0.0	0.9440917874364908	-0.5251139534022005	0.0	0.99528392887948	-0.5169922358795577	0.0	1.0344033639634658	-0.49642281279161166	0.0	0.9384885671361297	-0.5225388462526191	0.0	0.9905885175358933	-0.5131541208735062	0.0	1.0210786248933346	-0.4870661394862808	0.0
64	2.1469214437367303	0.9555446141029736	-0.6170272343416808	0.0	0.9551743897006677	-0.6193126854384382	0.0	1.019186572622103	-0.7044696044627433	0.0	0.9875350563749801	-0.7980253779000044	0.0	1.0054258330828807	-0.8181283673354491	0.0	0.9988958490967327	-0.8192020542166436	0.0	0.9770472718559327	-0.8092614973735593	0.0	0.9564004520432187	-0.6154631940826205	0.0	1.0133294892918325	-0.7005974817374298	0.0	0.9866455564689542	-0.7944250911219138	0.0	1.008043383076489	-0.812189409411982	0.0	1.0041070716435534	-0.8107445562434771	0.0	0.9724735667527973	-0.8081883217780831	0.0	0.9231698220093865	-0.4962724756687203	0.0	0.9054172330361144	-0.42742833472192476	0.0	0.9336144065186635	-0.4531270735426492	0.0	0.9269507237760668	-0.5044077495280945	0.0	0.9766976110309273	-0.47541181338928973	0.0	1.0084294749828657	-0.43644213375622837	0.0	0.9194743000242569	-0.5026184493042436	0.0	0.9701442457213023	-0.4744584734540036	0.0	0.9911406115728372	-0.4323561746446096	0.0
65	2.180467091295117	0.9549380901477986	-0.5885810741371265	0.0	0.9557261844343367	-0.5906905708663158	0.0	1.0249081339787798	-0.6671241489514512	0.0	0.9975708941929875	-0.7642890252788569	0.0	1.0133028681939094	-0.7891715014668527	0.0	1.006939059002077	-0.7901362749087816	0.0	0.9876789248811165	-0.7776367056654567	0.0	0.955507356188179	-0.586271566195182	0.0	1.0175694619038138	-0.6622544522275127	0.0	0.996270928695251	-0.7594819054457088	0.0	1.0157514641590173	-0.7809230714296049	0.0	1.0138721135582753	-0.7813359629369848	0.0	0.9823650975072176	-0.7784882367393334	0.0	0.9032016925199227	-0.47460864979795336	0.0	0.8774940069408967	-0.4074528416779057	0.0	0.9079126848027703	-0.43051358192415146	0.0	0.9078270965428821	-0.480473937710587	0.0	0.9529678620187696	-0.4361890025418823	0.0	0.9757748088133392	-0.38377770415860013	0.0	0.8989325939742824	-0.47944672033300517	0.0	0.9450588065681138	-0.437475009484716	0.0	0.9573841746849524	-0.38419179029348555	0.0
